<?xml version="1.0" standalone="no"?>
<!DOCTYPE svg PUBLIC "-//W3C//DTD SVG 20010904//EN"
 "http://www.w3.org/TR/2001/REC-SVG-20010904/DTD/svg10.dtd">
<svg version="1.0" xmlns="http://www.w3.org/2000/svg"
 width="581.000000pt" height="674.000000pt" viewBox="0 0 581.000000 674.000000"
 preserveAspectRatio="xMidYMid meet">

<g transform="translate(0.000000,674.000000) scale(0.100000,-0.100000)"
fill="#000000" stroke="none">
<path d="M635 6626 c-85 -27 -145 -75 -180 -144 -100 -199 -31 -905 179 -1832
161 -709 288 -1151 503 -1745 413 -1140 749 -1768 1053 -1964 122 -79 216 -88
334 -33 176 83 300 262 607 880 254 511 370 703 492 821 42 40 43 40 81 -94
76 -269 86 -610 25 -837 -26 -95 -23 -122 13 -126 36 -4 70 15 159 91 163 139
334 390 416 607 40 106 63 329 73 705 11 412 26 516 117 803 19 62 34 114 32
116 -2 2 -53 -4 -114 -12 -173 -24 -835 -23 -1020 1 -612 80 -1099 228 -1604
488 -163 85 -431 244 -470 280 -12 11 -20 39 -24 80 -4 34 -5 64 -3 66 2 2 45
-25 97 -60 528 -360 1134 -601 1784 -711 260 -44 353 -51 720 -51 292 0 390 4
517 19 87 10 162 24 167 30 13 16 96 222 120 296 28 86 45 156 67 265 23 113
26 457 5 549 -8 35 -9 62 -4 67 5 5 40 21 78 34 38 14 70 27 72 29 2 2 -36 1
-84 -1 l-88 -5 -29 92 c-53 167 -179 355 -298 446 -127 98 -265 139 -438 131
-199 -10 -290 -44 -584 -219 l-68 -41 -112 48 c-61 27 -158 70 -215 97 -57 26
-105 48 -107 48 -2 0 -32 13 -66 29 -35 16 -121 56 -193 89 -71 33 -159 73
-195 90 -205 95 -434 198 -660 297 -288 125 -657 249 -834 280 -106 18 -265
19 -321 1z m1860 -1150 l90 -36 -165 4 c-124 4 -196 11 -289 31 -68 14 -130
29 -137 33 -7 4 83 7 199 6 l212 -1 90 -37z m-187 -293 l3 -133 134 0 135 0 0
-120 0 -120 -135 0 -135 0 0 -135 0 -135 -120 0 -120 0 0 68 c0 37 -3 97 -7
135 l-6 67 -128 0 c-96 0 -129 3 -130 13 0 6 -1 59 -1 117 l0 105 133 5 134 5
2 125 c1 69 2 129 2 133 1 4 54 6 119 5 l117 -3 3 -132z m1032 -1550 c-1 -5
-27 -25 -58 -45 -140 -91 -518 -425 -501 -443 4 -3 40 0 80 6 134 21 308 -5
424 -63 93 -47 200 -141 264 -233 34 -49 91 -160 91 -178 0 -7 -15 -21 -32
-32 -91 -53 -249 -229 -463 -515 -349 -466 -490 -590 -668 -590 -79 0 -142 29
-219 99 -64 58 -72 78 -87 206 -15 124 -14 248 4 395 21 180 39 247 133 505
147 407 460 704 897 854 127 43 135 45 135 34z"/>
</g>
</svg>
